<svg width="217" height="137" viewBox="0 0 217 137" fill="none" xmlns="http://www.w3.org/2000/svg">
<path d="M45.4609 34.5938H38.3359L38.3828 30.9141H45.4609C47.8984 30.9141 49.9296 30.4062 51.5546 29.3906C53.1796 28.3594 54.3984 26.9219 55.2109 25.0781C56.039 23.2188 56.4531 21.0469 56.4531 18.5625V16.4766C56.4531 14.5234 56.2187 12.7891 55.7499 11.2734C55.2812 9.74219 54.5937 8.45312 53.6874 7.40625C52.7812 6.34375 51.6718 5.53906 50.3593 4.99219C49.0624 4.44531 47.5703 4.17188 45.8828 4.17188H38.1953V0.46875H45.8828C48.1171 0.46875 50.1562 0.84375 51.9999 1.59375C53.8437 2.32812 55.4296 3.39844 56.7578 4.80469C58.1015 6.19531 59.1328 7.88281 59.8515 9.86719C60.5703 11.8359 60.9296 14.0547 60.9296 16.5234V18.5625C60.9296 21.0312 60.5703 23.2578 59.8515 25.2422C59.1328 27.2109 58.0937 28.8906 56.7343 30.2812C55.3906 31.6719 53.7656 32.7422 51.8593 33.4922C49.9687 34.2266 47.8359 34.5938 45.4609 34.5938ZM40.7499 0.46875V34.5938H36.2265V0.46875H40.7499Z" fill="white"/>
<path d="M71.7812 9.23438V34.5938H67.4218V9.23438H71.7812ZM67.0937 2.50781C67.0937 1.80469 67.3046 1.21094 67.7265 0.726562C68.164 0.242188 68.8046 0 69.6484 0C70.4765 0 71.1093 0.242188 71.5468 0.726562C71.9999 1.21094 72.2265 1.80469 72.2265 2.50781C72.2265 3.17969 71.9999 3.75781 71.5468 4.24219C71.1093 4.71094 70.4765 4.94531 69.6484 4.94531C68.8046 4.94531 68.164 4.71094 67.7265 4.24219C67.3046 3.75781 67.0937 3.17969 67.0937 2.50781Z" fill="white"/>
<path d="M93.5078 27.8672C93.5078 27.2422 93.3671 26.6641 93.0859 26.1328C92.8203 25.5859 92.2656 25.0938 91.4218 24.6562C90.5937 24.2031 89.3437 23.8125 87.6718 23.4844C86.2656 23.1875 84.9921 22.8359 83.8515 22.4297C82.7265 22.0234 81.7656 21.5312 80.9687 20.9531C80.1874 20.375 79.5859 19.6953 79.164 18.9141C78.7421 18.1328 78.5312 17.2188 78.5312 16.1719C78.5312 15.1719 78.7499 14.2266 79.1874 13.3359C79.6406 12.4453 80.2734 11.6562 81.0859 10.9688C81.914 10.2812 82.9062 9.74219 84.0624 9.35156C85.2187 8.96094 86.5078 8.76562 87.9296 8.76562C89.9609 8.76562 91.6953 9.125 93.1328 9.84375C94.5703 10.5625 95.6718 11.5234 96.4374 12.7266C97.2031 13.9141 97.5859 15.2344 97.5859 16.6875H93.2499C93.2499 15.9844 93.039 15.3047 92.6171 14.6484C92.2109 13.9766 91.6093 13.4219 90.8124 12.9844C90.0312 12.5469 89.0703 12.3281 87.9296 12.3281C86.7265 12.3281 85.7499 12.5156 84.9999 12.8906C84.2656 13.25 83.7265 13.7109 83.3828 14.2734C83.0546 14.8359 82.8906 15.4297 82.8906 16.0547C82.8906 16.5234 82.9687 16.9453 83.1249 17.3203C83.2968 17.6797 83.5937 18.0156 84.0156 18.3281C84.4374 18.625 85.0312 18.9062 85.7968 19.1719C86.5624 19.4375 87.539 19.7031 88.7265 19.9688C90.8046 20.4375 92.5156 21 93.8593 21.6562C95.2031 22.3125 96.2031 23.1172 96.8593 24.0703C97.5156 25.0234 97.8437 26.1797 97.8437 27.5391C97.8437 28.6484 97.6093 29.6641 97.1406 30.5859C96.6874 31.5078 96.0234 32.3047 95.1484 32.9766C94.289 33.6328 93.2578 34.1484 92.0546 34.5234C90.8671 34.8828 89.5312 35.0625 88.0468 35.0625C85.8124 35.0625 83.9218 34.6641 82.3749 33.8672C80.8281 33.0703 79.6562 32.0391 78.8593 30.7734C78.0624 29.5078 77.664 28.1719 77.664 26.7656H82.0234C82.0859 27.9531 82.4296 28.8984 83.0546 29.6016C83.6796 30.2891 84.4453 30.7812 85.3515 31.0781C86.2578 31.3594 87.1562 31.5 88.0468 31.5C89.2343 31.5 90.2265 31.3437 91.0234 31.0312C91.8359 30.7187 92.4531 30.2891 92.8749 29.7422C93.2968 29.1953 93.5078 28.5703 93.5078 27.8672Z" fill="white"/>
<path d="M113.687 31.5C114.719 31.5 115.672 31.2891 116.547 30.8672C117.422 30.4453 118.141 29.8672 118.703 29.1328C119.266 28.3828 119.586 27.5312 119.664 26.5781H123.789C123.711 28.0781 123.203 29.4766 122.266 30.7734C121.344 32.0547 120.133 33.0938 118.633 33.8906C117.133 34.6719 115.484 35.0625 113.687 35.0625C111.781 35.0625 110.117 34.7266 108.695 34.0547C107.289 33.3828 106.117 32.4609 105.18 31.2891C104.258 30.1172 103.562 28.7734 103.094 27.2578C102.641 25.7266 102.414 24.1094 102.414 22.4062V21.4219C102.414 19.7188 102.641 18.1094 103.094 16.5938C103.562 15.0625 104.258 13.7109 105.18 12.5391C106.117 11.3672 107.289 10.4453 108.695 9.77344C110.117 9.10156 111.781 8.76562 113.687 8.76562C115.672 8.76562 117.406 9.17188 118.891 9.98438C120.375 10.7812 121.539 11.875 122.383 13.2656C123.242 14.6406 123.711 16.2031 123.789 17.9531H119.664C119.586 16.9062 119.289 15.9609 118.773 15.1172C118.273 14.2734 117.586 13.6016 116.711 13.1016C115.852 12.5859 114.844 12.3281 113.687 12.3281C112.359 12.3281 111.242 12.5938 110.336 13.125C109.445 13.6406 108.734 14.3438 108.203 15.2344C107.687 16.1094 107.312 17.0859 107.078 18.1641C106.859 19.2266 106.75 20.3125 106.75 21.4219V22.4062C106.75 23.5156 106.859 24.6094 107.078 25.6875C107.297 26.7656 107.664 27.7422 108.18 28.6172C108.711 29.4922 109.422 30.1953 110.312 30.7266C111.219 31.2422 112.344 31.5 113.687 31.5Z" fill="white"/>
<path d="M127.516 22.1953V21.6562C127.516 19.8281 127.781 18.1328 128.312 16.5703C128.844 14.9922 129.609 13.625 130.609 12.4688C131.609 11.2969 132.82 10.3906 134.242 9.75C135.664 9.09375 137.258 8.76562 139.023 8.76562C140.805 8.76562 142.406 9.09375 143.828 9.75C145.266 10.3906 146.484 11.2969 147.484 12.4688C148.5 13.625 149.273 14.9922 149.805 16.5703C150.336 18.1328 150.602 19.8281 150.602 21.6562V22.1953C150.602 24.0234 150.336 25.7188 149.805 27.2812C149.273 28.8438 148.5 30.2109 147.484 31.3828C146.484 32.5391 145.273 33.4453 143.852 34.1016C142.445 34.7422 140.852 35.0625 139.07 35.0625C137.289 35.0625 135.687 34.7422 134.266 34.1016C132.844 33.4453 131.625 32.5391 130.609 31.3828C129.609 30.2109 128.844 28.8438 128.312 27.2812C127.781 25.7188 127.516 24.0234 127.516 22.1953ZM131.852 21.6562V22.1953C131.852 23.4609 132 24.6562 132.297 25.7812C132.594 26.8906 133.039 27.875 133.633 28.7344C134.242 29.5938 135 30.2734 135.906 30.7734C136.812 31.2578 137.867 31.5 139.07 31.5C140.258 31.5 141.297 31.2578 142.187 30.7734C143.094 30.2734 143.844 29.5938 144.437 28.7344C145.031 27.875 145.477 26.8906 145.773 25.7812C146.086 24.6562 146.242 23.4609 146.242 22.1953V21.6562C146.242 20.4062 146.086 19.2266 145.773 18.1172C145.477 16.9922 145.023 16 144.414 15.1406C143.82 14.2656 143.07 13.5781 142.164 13.0781C141.273 12.5781 140.227 12.3281 139.023 12.3281C137.836 12.3281 136.789 12.5781 135.883 13.0781C134.992 13.5781 134.242 14.2656 133.633 15.1406C133.039 16 132.594 16.9922 132.297 18.1172C132 19.2266 131.852 20.4062 131.852 21.6562Z" fill="white"/>
<path d="M163.375 30.6797L170.312 9.23438H174.742L165.625 34.5938H162.719L163.375 30.6797ZM157.586 9.23438L164.734 30.7969L165.227 34.5938H162.32L153.133 9.23438H157.586Z" fill="white"/>
<path d="M189.109 35.0625C187.344 35.0625 185.742 34.7656 184.305 34.1719C182.883 33.5625 181.656 32.7109 180.625 31.6172C179.609 30.5234 178.828 29.2266 178.281 27.7266C177.734 26.2266 177.461 24.5859 177.461 22.8047V21.8203C177.461 19.7578 177.766 17.9219 178.375 16.3125C178.984 14.6875 179.812 13.3125 180.859 12.1875C181.906 11.0625 183.094 10.2109 184.422 9.63281C185.75 9.05469 187.125 8.76562 188.547 8.76562C190.359 8.76562 191.922 9.07812 193.234 9.70312C194.562 10.3281 195.648 11.2031 196.492 12.3281C197.336 13.4375 197.961 14.75 198.367 16.2656C198.773 17.7656 198.977 19.4062 198.977 21.1875V23.1328H180.039V19.5938H194.641V19.2656C194.578 18.1406 194.344 17.0469 193.937 15.9844C193.547 14.9219 192.922 14.0469 192.062 13.3594C191.203 12.6719 190.031 12.3281 188.547 12.3281C187.562 12.3281 186.656 12.5391 185.828 12.9609C185 13.3672 184.289 13.9766 183.695 14.7891C183.102 15.6016 182.641 16.5938 182.312 17.7656C181.984 18.9375 181.82 20.2891 181.82 21.8203V22.8047C181.82 24.0078 181.984 25.1406 182.312 26.2031C182.656 27.25 183.148 28.1719 183.789 28.9688C184.445 29.7656 185.234 30.3906 186.156 30.8437C187.094 31.2969 188.156 31.5234 189.344 31.5234C190.875 31.5234 192.172 31.2109 193.234 30.5859C194.297 29.9609 195.227 29.125 196.023 28.0781L198.648 30.1641C198.102 30.9922 197.406 31.7813 196.562 32.5313C195.719 33.2813 194.68 33.8906 193.445 34.3594C192.227 34.8281 190.781 35.0625 189.109 35.0625Z" fill="white"/>
<path d="M208.375 13.2188V34.5938H204.039V9.23438H208.258L208.375 13.2188ZM216.297 9.09375L216.273 13.125C215.914 13.0469 215.57 13 215.242 12.9844C214.93 12.9531 214.57 12.9375 214.164 12.9375C213.164 12.9375 212.281 13.0938 211.516 13.4062C210.75 13.7188 210.102 14.1562 209.57 14.7188C209.039 15.2812 208.617 15.9531 208.305 16.7344C208.008 17.5 207.812 18.3438 207.719 19.2656L206.5 19.9688C206.5 18.4375 206.648 17 206.945 15.6562C207.258 14.3125 207.734 13.125 208.375 12.0938C209.016 11.0469 209.828 10.2344 210.812 9.65625C211.812 9.0625 213 8.76562 214.375 8.76562C214.687 8.76562 215.047 8.80469 215.453 8.88281C215.859 8.94531 216.141 9.01562 216.297 9.09375Z" fill="white"/>
<path d="M55.9296 63.1094V54.4063C55.9296 53.7396 55.7942 53.1615 55.5234 52.6719C55.263 52.1719 54.8671 51.7865 54.3359 51.5156C53.8046 51.2448 53.1484 51.1094 52.3671 51.1094C51.638 51.1094 50.9973 51.2344 50.4453 51.4844C49.9036 51.7344 49.4765 52.0625 49.164 52.4688C48.8619 52.875 48.7109 53.3125 48.7109 53.7813H45.8203C45.8203 53.1771 45.9765 52.5781 46.289 51.9844C46.6015 51.3906 47.0494 50.8542 47.6328 50.375C48.2265 49.8854 48.9348 49.5 49.7578 49.2188C50.5911 48.9271 51.5182 48.7813 52.539 48.7813C53.7682 48.7813 54.8515 48.9896 55.789 49.4063C56.7369 49.8229 57.4765 50.4531 58.0078 51.2969C58.5494 52.1302 58.8203 53.1771 58.8203 54.4375V62.3125C58.8203 62.875 58.8671 63.474 58.9609 64.1094C59.065 64.7448 59.2161 65.2917 59.414 65.75V66H56.3984C56.2525 65.6667 56.138 65.224 56.0546 64.6719C55.9713 64.1094 55.9296 63.5885 55.9296 63.1094ZM56.4296 55.75L56.4609 57.7813H53.539C52.7161 57.7813 51.9817 57.849 51.3359 57.9844C50.69 58.1094 50.1484 58.3021 49.7109 58.5625C49.2734 58.8229 48.94 59.151 48.7109 59.5469C48.4817 59.9323 48.3671 60.3854 48.3671 60.9063C48.3671 61.4375 48.4869 61.9219 48.7265 62.3594C48.9661 62.7969 49.3255 63.1458 49.8046 63.4063C50.2942 63.6563 50.8932 63.7813 51.6015 63.7813C52.4869 63.7813 53.2682 63.5938 53.9453 63.2188C54.6223 62.8438 55.1588 62.3854 55.5546 61.8438C55.9609 61.3021 56.1796 60.776 56.2109 60.2656L57.4453 61.6563C57.3723 62.0938 57.1744 62.5781 56.8515 63.1094C56.5286 63.6406 56.0963 64.151 55.5546 64.6406C55.0234 65.1198 54.388 65.5208 53.6484 65.8438C52.9192 66.1563 52.0963 66.3125 51.1796 66.3125C50.0338 66.3125 49.0286 66.0885 48.164 65.6406C47.3098 65.1927 46.6432 64.5938 46.164 63.8438C45.6953 63.0833 45.4609 62.2344 45.4609 61.2969C45.4609 60.3906 45.638 59.5938 45.9921 58.9063C46.3463 58.2083 46.8567 57.6302 47.5234 57.1719C48.19 56.7031 48.9921 56.349 49.9296 56.1094C50.8671 55.8698 51.914 55.75 53.0703 55.75H56.4296Z" fill="white"/>
<path d="M71.289 42H74.1953V62.7188L73.9453 66H71.289V42ZM85.6171 57.4063V57.7344C85.6171 58.9635 85.4713 60.1042 85.1796 61.1563C84.888 62.1979 84.4609 63.1042 83.8984 63.875C83.3359 64.6458 82.6484 65.2448 81.8359 65.6719C81.0234 66.099 80.0911 66.3125 79.039 66.3125C77.9661 66.3125 77.0234 66.1302 76.2109 65.7656C75.4088 65.3906 74.7317 64.8542 74.1796 64.1563C73.6276 63.4583 73.1848 62.6146 72.8515 61.625C72.5286 60.6354 72.3046 59.5208 72.1796 58.2813V56.8438C72.3046 55.5938 72.5286 54.474 72.8515 53.4844C73.1848 52.4948 73.6276 51.651 74.1796 50.9531C74.7317 50.2448 75.4088 49.7083 76.2109 49.3438C77.013 48.9688 77.9453 48.7813 79.0078 48.7813C80.0703 48.7813 81.013 48.9896 81.8359 49.4063C82.6588 49.8125 83.3463 50.3958 83.8984 51.1563C84.4609 51.9167 84.888 52.8281 85.1796 53.8906C85.4713 54.9427 85.6171 56.1146 85.6171 57.4063ZM82.7109 57.7344V57.4063C82.7109 56.5625 82.6328 55.7708 82.4765 55.0313C82.3203 54.2813 82.0703 53.625 81.7265 53.0625C81.3828 52.4896 80.9296 52.0417 80.3671 51.7188C79.8046 51.3854 79.1119 51.2188 78.289 51.2188C77.5598 51.2188 76.9244 51.3438 76.3828 51.5938C75.8515 51.8438 75.3984 52.1823 75.0234 52.6094C74.6484 53.026 74.3411 53.5052 74.1015 54.0469C73.8723 54.5781 73.7005 55.1302 73.5859 55.7031V59.4688C73.7526 60.1979 74.0234 60.901 74.3984 61.5781C74.7838 62.2448 75.2942 62.7917 75.9296 63.2188C76.5755 63.6458 77.3723 63.8594 78.3203 63.8594C79.1015 63.8594 79.7682 63.7031 80.3203 63.3906C80.8828 63.0677 81.3359 62.625 81.6796 62.0625C82.0338 61.5 82.2942 60.849 82.4609 60.1094C82.6276 59.3698 82.7109 58.5781 82.7109 57.7344Z" fill="#CCCCCC"/>
<path d="M92.164 51.75V66H89.2734V49.0938H92.0859L92.164 51.75ZM97.4453 49L97.4296 51.6875C97.1901 51.6354 96.9609 51.6042 96.7421 51.5938C96.5338 51.5729 96.2942 51.5625 96.0234 51.5625C95.3567 51.5625 94.7682 51.6667 94.2578 51.875C93.7473 52.0833 93.3151 52.375 92.9609 52.75C92.6067 53.125 92.3255 53.5729 92.1171 54.0938C91.9192 54.6042 91.789 55.1667 91.7265 55.7813L90.914 56.25C90.914 55.2292 91.013 54.2708 91.2109 53.375C91.4192 52.4792 91.7369 51.6875 92.164 51C92.5911 50.3021 93.1328 49.7604 93.789 49.375C94.4557 48.9792 95.2473 48.7813 96.164 48.7813C96.3723 48.7813 96.6119 48.8073 96.8828 48.8594C97.1536 48.901 97.3411 48.9479 97.4453 49Z" fill="#CCCCCC"/>
<path d="M109.461 63.1094V54.4063C109.461 53.7396 109.325 53.1615 109.055 52.6719C108.794 52.1719 108.398 51.7865 107.867 51.5156C107.336 51.2448 106.68 51.1094 105.898 51.1094C105.169 51.1094 104.529 51.2344 103.977 51.4844C103.435 51.7344 103.008 52.0625 102.695 52.4688C102.393 52.875 102.242 53.3125 102.242 53.7813H99.3515C99.3515 53.1771 99.5078 52.5781 99.8203 51.9844C100.133 51.3906 100.581 50.8542 101.164 50.375C101.758 49.8854 102.466 49.5 103.289 49.2188C104.122 48.9271 105.049 48.7813 106.07 48.7813C107.299 48.7813 108.383 48.9896 109.32 49.4063C110.268 49.8229 111.008 50.4531 111.539 51.2969C112.081 52.1302 112.352 53.1771 112.352 54.4375V62.3125C112.352 62.875 112.398 63.474 112.492 64.1094C112.596 64.7448 112.747 65.2917 112.945 65.75V66H109.93C109.784 65.6667 109.669 65.224 109.586 64.6719C109.503 64.1094 109.461 63.5885 109.461 63.1094ZM109.961 55.75L109.992 57.7813H107.07C106.247 57.7813 105.513 57.849 104.867 57.9844C104.221 58.1094 103.68 58.3021 103.242 58.5625C102.805 58.8229 102.471 59.151 102.242 59.5469C102.013 59.9323 101.898 60.3854 101.898 60.9063C101.898 61.4375 102.018 61.9219 102.258 62.3594C102.497 62.7969 102.857 63.1458 103.336 63.4063C103.825 63.6563 104.424 63.7813 105.133 63.7813C106.018 63.7813 106.799 63.5938 107.477 63.2188C108.154 62.8438 108.69 62.3854 109.086 61.8438C109.492 61.3021 109.711 60.776 109.742 60.2656L110.977 61.6563C110.904 62.0938 110.706 62.5781 110.383 63.1094C110.06 63.6406 109.628 64.151 109.086 64.6406C108.555 65.1198 107.919 65.5208 107.18 65.8438C106.45 66.1563 105.628 66.3125 104.711 66.3125C103.565 66.3125 102.56 66.0885 101.695 65.6406C100.841 65.1927 100.174 64.5938 99.6953 63.8438C99.2265 63.0833 98.9921 62.2344 98.9921 61.2969C98.9921 60.3906 99.1692 59.5938 99.5234 58.9063C99.8776 58.2083 100.388 57.6302 101.055 57.1719C101.721 56.7031 102.523 56.349 103.461 56.1094C104.398 55.8698 105.445 55.75 106.602 55.75H109.961Z" fill="#CCCCCC"/>
<path d="M119.789 52.7031V66H116.898V49.0938H119.633L119.789 52.7031ZM119.102 56.9063L117.898 56.8594C117.909 55.7031 118.081 54.6354 118.414 53.6563C118.747 52.6667 119.216 51.8073 119.82 51.0781C120.424 50.349 121.143 49.7865 121.977 49.3906C122.82 48.9844 123.753 48.7813 124.773 48.7813C125.607 48.7813 126.357 48.8958 127.023 49.125C127.69 49.3438 128.258 49.6979 128.727 50.1875C129.206 50.6771 129.57 51.3125 129.82 52.0938C130.07 52.8646 130.195 53.8073 130.195 54.9219V66H127.289V54.8906C127.289 54.0052 127.159 53.2969 126.898 52.7656C126.638 52.224 126.258 51.8333 125.758 51.5938C125.258 51.3438 124.643 51.2188 123.914 51.2188C123.195 51.2188 122.539 51.3698 121.945 51.6719C121.362 51.974 120.857 52.3906 120.43 52.9219C120.013 53.4531 119.685 54.0625 119.445 54.75C119.216 55.4271 119.102 56.1458 119.102 56.9063Z" fill="#CCCCCC"/>
<path d="M145.242 62.7188V42H148.148V66H145.492L145.242 62.7188ZM133.867 57.7344V57.4063C133.867 56.1146 134.023 54.9427 134.336 53.8906C134.659 52.8281 135.112 51.9167 135.695 51.1563C136.289 50.3958 136.992 49.8125 137.805 49.4063C138.628 48.9896 139.544 48.7813 140.555 48.7813C141.617 48.7813 142.544 48.9688 143.336 49.3438C144.138 49.7083 144.815 50.2448 145.367 50.9531C145.93 51.651 146.372 52.4948 146.695 53.4844C147.018 54.474 147.242 55.5938 147.367 56.8438V58.2813C147.253 59.5208 147.029 60.6354 146.695 61.625C146.372 62.6146 145.93 63.4583 145.367 64.1563C144.815 64.8542 144.138 65.3906 143.336 65.7656C142.534 66.1302 141.596 66.3125 140.523 66.3125C139.534 66.3125 138.628 66.099 137.805 65.6719C136.992 65.2448 136.289 64.6458 135.695 63.875C135.112 63.1042 134.659 62.1979 134.336 61.1563C134.023 60.1042 133.867 58.9635 133.867 57.7344ZM136.773 57.4063V57.7344C136.773 58.5781 136.857 59.3698 137.023 60.1094C137.2 60.849 137.471 61.5 137.836 62.0625C138.2 62.625 138.664 63.0677 139.227 63.3906C139.789 63.7031 140.461 63.8594 141.242 63.8594C142.2 63.8594 142.987 63.6563 143.602 63.25C144.227 62.8438 144.727 62.3073 145.102 61.6406C145.477 60.974 145.768 60.25 145.977 59.4688V55.7031C145.852 55.1302 145.669 54.5781 145.43 54.0469C145.2 53.5052 144.898 53.026 144.523 52.6094C144.159 52.1823 143.706 51.8438 143.164 51.5938C142.633 51.3438 142.003 51.2188 141.273 51.2188C140.482 51.2188 139.799 51.3854 139.227 51.7188C138.664 52.0417 138.2 52.4896 137.836 53.0625C137.471 53.625 137.2 54.2813 137.023 55.0313C136.857 55.7708 136.773 56.5625 136.773 57.4063Z" fill="#CCCCCC"/>
<path d="M163.477 52.7031V66H160.586V49.0938H163.32L163.477 52.7031ZM162.789 56.9063L161.586 56.8594C161.596 55.7031 161.768 54.6354 162.102 53.6563C162.435 52.6667 162.904 51.8073 163.508 51.0781C164.112 50.349 164.831 49.7865 165.664 49.3906C166.508 48.9844 167.44 48.7813 168.461 48.7813C169.294 48.7813 170.044 48.8958 170.711 49.125C171.378 49.3438 171.945 49.6979 172.414 50.1875C172.893 50.6771 173.258 51.3125 173.508 52.0938C173.758 52.8646 173.883 53.8073 173.883 54.9219V66H170.977V54.8906C170.977 54.0052 170.846 53.2969 170.586 52.7656C170.325 52.224 169.945 51.8333 169.445 51.5938C168.945 51.3438 168.331 51.2188 167.602 51.2188C166.883 51.2188 166.227 51.3698 165.633 51.6719C165.049 51.974 164.544 52.3906 164.117 52.9219C163.7 53.4531 163.372 54.0625 163.133 54.75C162.904 55.4271 162.789 56.1458 162.789 56.9063Z" fill="#CCCCCC"/>
<path d="M185.289 66.3125C184.112 66.3125 183.044 66.1146 182.086 65.7188C181.138 65.3125 180.32 64.7448 179.633 64.0156C178.956 63.2865 178.435 62.4219 178.07 61.4219C177.706 60.4219 177.523 59.3281 177.523 58.1406V57.4844C177.523 56.1094 177.727 54.8854 178.133 53.8125C178.539 52.7292 179.091 51.8125 179.789 51.0625C180.487 50.3125 181.279 49.7448 182.164 49.3594C183.049 48.974 183.966 48.7813 184.914 48.7813C186.122 48.7813 187.164 48.9896 188.039 49.4063C188.924 49.8229 189.648 50.4063 190.211 51.1563C190.773 51.8958 191.19 52.7708 191.461 53.7813C191.732 54.7813 191.867 55.875 191.867 57.0625V58.3594H179.242V56H188.977V55.7813C188.935 55.0313 188.779 54.3021 188.508 53.5938C188.247 52.8854 187.831 52.3021 187.258 51.8438C186.685 51.3854 185.904 51.1563 184.914 51.1563C184.258 51.1563 183.654 51.2969 183.102 51.5781C182.549 51.849 182.075 52.2552 181.68 52.7969C181.284 53.3385 180.977 54 180.758 54.7813C180.539 55.5625 180.43 56.4635 180.43 57.4844V58.1406C180.43 58.9427 180.539 59.6979 180.758 60.4063C180.987 61.1042 181.315 61.7188 181.742 62.25C182.18 62.7813 182.706 63.1979 183.32 63.5C183.945 63.8021 184.654 63.9531 185.445 63.9531C186.466 63.9531 187.331 63.7448 188.039 63.3281C188.747 62.9115 189.367 62.3542 189.898 61.6563L191.648 63.0469C191.284 63.599 190.82 64.125 190.258 64.625C189.695 65.125 189.003 65.5313 188.18 65.8438C187.367 66.1563 186.404 66.3125 185.289 66.3125Z" fill="#CCCCCC"/>
<path d="M199.523 63L203.867 49.0938H205.773L205.398 51.8594L200.977 66H199.117L199.523 63ZM196.602 49.0938L200.305 63.1563L200.57 66H198.617L193.711 49.0938H196.602ZM209.93 63.0469L213.461 49.0938H216.336L211.43 66H209.492L209.93 63.0469ZM206.195 49.0938L210.445 62.7656L210.93 66H209.086L204.539 51.8281L204.164 49.0938H206.195Z" fill="#CCCCCC"/>
<path d="M138.09 76.3203H140.059V88.7305C140.059 89.8477 139.832 90.8008 139.379 91.5899C138.926 92.3789 138.293 92.9766 137.48 93.3828C136.676 93.7969 136.254 94 135.199 94C134.762 94 133.738 93.9336 133.144 93.793C132.559 93.6602 131.98 93.4297 131.41 93.1016C130.848 92.7813 130.375 92.3477 129.992 91.8008L131.129 90.5117C131.66 91.1524 132.215 91.5977 132.793 91.8477C133.379 92.0977 133.957 92.2227 134.527 92.2227C135.215 92.2227 135.809 92.0938 136.309 91.8359C136.809 91.5781 137.195 91.1953 137.469 90.6875C137.75 90.1875 137.891 89.5703 137.891 88.8359V79.1094L138.09 76.3203ZM129.359 82.8008V82.5547C129.359 81.5859 129.473 80.707 129.699 79.918C129.934 79.1211 130.266 78.4375 130.695 77.8672C131.133 77.2969 131.66 76.8594 132.277 76.5547C132.894 76.2422 133.59 76.0859 134.363 76.0859C135.16 76.0859 135.855 76.2266 136.449 76.5078C137.051 76.7813 137.559 77.1836 137.973 77.7149C138.394 78.2383 138.727 78.8711 138.969 79.6133C139.211 80.3555 139.379 81.1953 139.473 82.1328V83.2109C139.387 84.1406 139.219 84.9766 138.969 85.7188C138.727 86.4609 138.394 87.0938 137.973 87.6172C137.559 88.1406 137.051 88.543 136.449 88.8242C135.848 89.0977 135.144 89.2344 134.34 89.2344C133.582 89.2344 132.894 89.0742 132.277 88.7539C131.668 88.4336 131.144 87.9844 130.707 87.4063C130.269 86.8281 129.934 86.1484 129.699 85.3672C129.473 84.5781 129.359 83.7227 129.359 82.8008ZM131.527 82.5547V82.8008C131.527 83.4336 131.59 84.0274 131.715 84.582C131.848 85.1367 132.047 85.625 132.312 86.0469C132.586 86.4688 132.934 86.8008 133.355 87.043C133.777 87.2774 134.281 87.3945 134.867 87.3945C135.586 87.3945 136.18 87.2422 136.648 86.9375C137.117 86.6328 137.488 86.2305 137.762 85.7305C138.043 85.2305 138.262 84.6875 138.418 84.1016V81.2774C138.332 80.8477 138.199 80.4336 138.019 80.0352C137.848 79.6289 137.621 79.2695 137.34 78.957C137.066 78.6367 136.727 78.3828 136.32 78.1953C135.914 78.0078 135.437 77.9141 134.891 77.9141C134.297 77.9141 133.785 78.0391 133.355 78.2891C132.934 78.5313 132.586 78.8672 132.312 79.2969C132.047 79.7188 131.848 80.2109 131.715 80.7734C131.59 81.3281 131.527 81.9219 131.527 82.5547Z" fill="white"/>
<path d="M148.613 89.2344C147.73 89.2344 146.93 89.0859 146.211 88.7891C145.5 88.4844 144.887 88.0586 144.371 87.5117C143.863 86.9649 143.473 86.3164 143.199 85.5664C142.926 84.8164 142.789 83.9961 142.789 83.1055V82.6133C142.789 81.582 142.941 80.6641 143.246 79.8594C143.551 79.0469 143.965 78.3594 144.488 77.7969C145.012 77.2344 145.605 76.8086 146.269 76.5195C146.934 76.2305 147.621 76.0859 148.332 76.0859C149.238 76.0859 150.019 76.2422 150.676 76.5547C151.34 76.8672 151.883 77.3047 152.305 77.8672C152.727 78.4219 153.039 79.0781 153.242 79.8359C153.445 80.5859 153.547 81.4063 153.547 82.2969V83.2695H144.078V81.5H151.379V81.3359C151.348 80.7734 151.23 80.2266 151.027 79.6953C150.832 79.1641 150.519 78.7266 150.09 78.3828C149.66 78.0391 149.074 77.8672 148.332 77.8672C147.84 77.8672 147.387 77.9727 146.973 78.1836C146.559 78.3867 146.203 78.6914 145.906 79.0977C145.609 79.5039 145.379 80 145.215 80.5859C145.051 81.1719 144.969 81.8477 144.969 82.6133V83.1055C144.969 83.707 145.051 84.2734 145.215 84.8047C145.387 85.3281 145.633 85.7891 145.953 86.1875C146.281 86.5859 146.676 86.8984 147.137 87.125C147.605 87.3516 148.137 87.4649 148.73 87.4649C149.496 87.4649 150.144 87.3086 150.676 86.9961C151.207 86.6836 151.672 86.2656 152.07 85.7422L153.383 86.7852C153.109 87.1992 152.762 87.5938 152.34 87.9688C151.918 88.3438 151.398 88.6484 150.781 88.8828C150.172 89.1172 149.449 89.2344 148.613 89.2344Z" fill="white"/>
<path d="M158.246 79.0274V89H156.078V76.3203H158.129L158.246 79.0274ZM157.73 82.1797L156.828 82.1445C156.836 81.2774 156.965 80.4766 157.215 79.7422C157.465 79 157.816 78.3555 158.269 77.8086C158.723 77.2617 159.262 76.8399 159.887 76.543C160.519 76.2383 161.219 76.0859 161.984 76.0859C162.609 76.0859 163.172 76.1719 163.672 76.3438C164.172 76.5078 164.598 76.7734 164.949 77.1406C165.309 77.5078 165.582 77.9844 165.769 78.5703C165.957 79.1484 166.051 79.8555 166.051 80.6914V89H163.871V80.668C163.871 80.0039 163.773 79.4727 163.578 79.0742C163.383 78.668 163.098 78.375 162.723 78.1953C162.348 78.0078 161.887 77.9141 161.34 77.9141C160.801 77.9141 160.309 78.0274 159.863 78.2539C159.426 78.4805 159.047 78.793 158.727 79.1914C158.414 79.5899 158.168 80.0469 157.988 80.5625C157.816 81.0703 157.73 81.6094 157.73 82.1797Z" fill="white"/>
<path d="M171.512 78.3125V89H169.344V76.3203H171.453L171.512 78.3125ZM175.473 76.25L175.461 78.2656C175.281 78.2266 175.109 78.2031 174.945 78.1953C174.789 78.1797 174.609 78.1719 174.406 78.1719C173.906 78.1719 173.465 78.25 173.082 78.4063C172.699 78.5625 172.375 78.7813 172.109 79.0625C171.844 79.3438 171.633 79.6797 171.477 80.0703C171.328 80.4531 171.23 80.875 171.184 81.3359L170.574 81.6875C170.574 80.9219 170.648 80.2031 170.797 79.5313C170.953 78.8594 171.191 78.2656 171.512 77.75C171.832 77.2266 172.238 76.8203 172.73 76.5313C173.23 76.2344 173.824 76.0859 174.512 76.0859C174.668 76.0859 174.848 76.1055 175.051 76.1445C175.254 76.1758 175.394 76.2109 175.473 76.25Z" fill="white"/>
<path d="M182.504 89.2344C181.621 89.2344 180.82 89.0859 180.102 88.7891C179.391 88.4844 178.777 88.0586 178.262 87.5117C177.754 86.9649 177.363 86.3164 177.09 85.5664C176.816 84.8164 176.68 83.9961 176.68 83.1055V82.6133C176.68 81.582 176.832 80.6641 177.137 79.8594C177.441 79.0469 177.855 78.3594 178.379 77.7969C178.902 77.2344 179.496 76.8086 180.16 76.5195C180.824 76.2305 181.512 76.0859 182.223 76.0859C183.129 76.0859 183.91 76.2422 184.566 76.5547C185.23 76.8672 185.773 77.3047 186.195 77.8672C186.617 78.4219 186.93 79.0781 187.133 79.8359C187.336 80.5859 187.437 81.4063 187.437 82.2969V83.2695H177.969V81.5H185.269V81.3359C185.238 80.7734 185.121 80.2266 184.918 79.6953C184.723 79.1641 184.41 78.7266 183.98 78.3828C183.551 78.0391 182.965 77.8672 182.223 77.8672C181.73 77.8672 181.277 77.9727 180.863 78.1836C180.449 78.3867 180.094 78.6914 179.797 79.0977C179.5 79.5039 179.269 80 179.105 80.5859C178.941 81.1719 178.859 81.8477 178.859 82.6133V83.1055C178.859 83.707 178.941 84.2734 179.105 84.8047C179.277 85.3281 179.523 85.7891 179.844 86.1875C180.172 86.5859 180.566 86.8984 181.027 87.125C181.496 87.3516 182.027 87.4649 182.621 87.4649C183.387 87.4649 184.035 87.3086 184.566 86.9961C185.098 86.6836 185.562 86.2656 185.961 85.7422L187.273 86.7852C187 87.1992 186.652 87.5938 186.23 87.9688C185.809 88.3438 185.289 88.6484 184.672 88.8828C184.062 89.1172 183.34 89.2344 182.504 89.2344Z" fill="white"/>
<path d="M195.348 82.8008V82.5313C195.348 81.6172 195.48 80.7695 195.746 79.9883C196.012 79.1992 196.394 78.5156 196.894 77.9375C197.394 77.3516 198 76.8984 198.711 76.5781C199.422 76.25 200.219 76.0859 201.102 76.0859C201.992 76.0859 202.793 76.25 203.504 76.5781C204.223 76.8984 204.832 77.3516 205.332 77.9375C205.84 78.5156 206.227 79.1992 206.492 79.9883C206.758 80.7695 206.891 81.6172 206.891 82.5313V82.8008C206.891 83.7149 206.758 84.5625 206.492 85.3438C206.227 86.125 205.84 86.8086 205.332 87.3945C204.832 87.9727 204.227 88.4258 203.516 88.7539C202.812 89.0742 202.016 89.2344 201.125 89.2344C200.234 89.2344 199.434 89.0742 198.723 88.7539C198.012 88.4258 197.402 87.9727 196.894 87.3945C196.394 86.8086 196.012 86.125 195.746 85.3438C195.48 84.5625 195.348 83.7149 195.348 82.8008ZM197.516 82.5313V82.8008C197.516 83.4336 197.59 84.0313 197.738 84.5938C197.887 85.1484 198.109 85.6406 198.406 86.0703C198.711 86.5 199.09 86.8399 199.543 87.0899C199.996 87.332 200.523 87.4531 201.125 87.4531C201.719 87.4531 202.238 87.332 202.684 87.0899C203.137 86.8399 203.512 86.5 203.809 86.0703C204.105 85.6406 204.328 85.1484 204.477 84.5938C204.633 84.0313 204.711 83.4336 204.711 82.8008V82.5313C204.711 81.9063 204.633 81.3164 204.477 80.7617C204.328 80.1992 204.102 79.7031 203.797 79.2734C203.5 78.8359 203.125 78.4922 202.672 78.2422C202.227 77.9922 201.703 77.8672 201.102 77.8672C200.508 77.8672 199.984 77.9922 199.531 78.2422C199.086 78.4922 198.711 78.8359 198.406 79.2734C198.109 79.7031 197.887 80.1992 197.738 80.7617C197.59 81.3164 197.516 81.9063 197.516 82.5313Z" fill="white"/>
<path d="M212.844 89H210.676V74.9844C210.676 74.0703 210.84 73.3008 211.168 72.6758C211.504 72.043 211.984 71.5664 212.609 71.2461C213.234 70.918 213.977 70.7539 214.836 70.7539C215.086 70.7539 215.336 70.7695 215.586 70.8008C215.844 70.832 216.094 70.8789 216.336 70.9414L216.219 72.7109C216.055 72.6719 215.867 72.6445 215.656 72.6289C215.453 72.6133 215.25 72.6055 215.047 72.6055C214.586 72.6055 214.187 72.6992 213.852 72.8867C213.523 73.0664 213.273 73.332 213.102 73.6836C212.93 74.0352 212.844 74.4688 212.844 74.9844V89ZM215.539 76.3203V77.9844H208.672V76.3203H215.539Z" fill="white"/>
<path d="M0 0H30V4.26316H0V0Z" fill="white"/>
<path d="M6.92308 11.3684H30V15.6316H6.92308V11.3684Z" fill="white"/>
<path d="M13.8462 22.7368H30V27H13.8462V22.7368Z" fill="white"/>
<path d="M74.0781 101.492H80.7812L88.3984 125.234L96.0156 101.492H102.719L91.1171 135.617H85.6796L74.0781 101.492ZM69.9999 101.492H76.9374L78.2265 127.648V135.617H69.9999V101.492ZM99.8593 101.492H106.82V135.617H98.5703V127.648L99.8593 101.492Z" fill="white"/>
<path d="M130.609 101.492H138.836V123.781C138.836 126.438 138.281 128.688 137.172 130.531C136.062 132.359 134.508 133.742 132.508 134.68C130.508 135.617 128.156 136.086 125.453 136.086C122.781 136.086 120.43 135.617 118.398 134.68C116.383 133.742 114.805 132.359 113.664 130.531C112.539 128.688 111.977 126.438 111.977 123.781V101.492H120.227V123.781C120.227 125.188 120.43 126.336 120.836 127.227C121.242 128.102 121.836 128.742 122.617 129.148C123.398 129.555 124.344 129.758 125.453 129.758C126.578 129.758 127.523 129.555 128.289 129.148C129.055 128.742 129.633 128.102 130.023 127.227C130.414 126.336 130.609 125.188 130.609 123.781V101.492Z" fill="white"/>
<path d="M161.594 126.547C161.594 126.016 161.516 125.539 161.359 125.117C161.203 124.68 160.914 124.273 160.492 123.898C160.07 123.523 159.461 123.148 158.664 122.773C157.883 122.383 156.852 121.977 155.57 121.555C154.07 121.055 152.625 120.492 151.234 119.867C149.844 119.227 148.602 118.484 147.508 117.641C146.414 116.781 145.547 115.781 144.906 114.641C144.266 113.484 143.945 112.141 143.945 110.609C143.945 109.141 144.273 107.82 144.93 106.648C145.586 105.461 146.5 104.453 147.672 103.625C148.859 102.781 150.25 102.141 151.844 101.703C153.437 101.25 155.18 101.023 157.07 101.023C159.57 101.023 161.773 101.461 163.68 102.336C165.602 103.195 167.102 104.422 168.18 106.016C169.273 107.594 169.82 109.461 169.82 111.617H161.641C161.641 110.758 161.461 110 161.102 109.344C160.758 108.688 160.234 108.172 159.531 107.797C158.828 107.422 157.945 107.234 156.883 107.234C155.852 107.234 154.984 107.391 154.281 107.703C153.578 108.016 153.047 108.438 152.687 108.969C152.328 109.484 152.148 110.055 152.148 110.68C152.148 111.195 152.289 111.664 152.57 112.086C152.867 112.492 153.281 112.875 153.812 113.234C154.359 113.594 155.016 113.938 155.781 114.266C156.562 114.594 157.437 114.914 158.406 115.227C160.219 115.805 161.828 116.453 163.234 117.172C164.656 117.875 165.852 118.68 166.82 119.586C167.805 120.477 168.547 121.492 169.047 122.633C169.562 123.773 169.82 125.063 169.82 126.5C169.82 128.031 169.523 129.391 168.93 130.578C168.336 131.766 167.484 132.773 166.375 133.602C165.266 134.414 163.937 135.031 162.391 135.453C160.844 135.875 159.117 136.086 157.211 136.086C155.461 136.086 153.734 135.867 152.031 135.43C150.344 134.977 148.812 134.289 147.437 133.367C146.062 132.43 144.961 131.234 144.133 129.781C143.32 128.312 142.914 126.57 142.914 124.555H151.164C151.164 125.555 151.297 126.398 151.562 127.086C151.828 127.773 152.219 128.328 152.734 128.75C153.25 129.156 153.883 129.453 154.633 129.641C155.383 129.812 156.242 129.898 157.211 129.898C158.258 129.898 159.102 129.75 159.742 129.453C160.383 129.141 160.852 128.734 161.148 128.234C161.445 127.719 161.594 127.156 161.594 126.547Z" fill="white"/>
<path d="M182.805 101.492V135.617H174.602V101.492H182.805Z" fill="white"/>
<path d="M208 124.063H216.203C216.094 126.438 215.453 128.531 214.281 130.344C213.109 132.156 211.484 133.57 209.406 134.586C207.344 135.586 204.906 136.086 202.094 136.086C199.812 136.086 197.773 135.703 195.977 134.938C194.195 134.172 192.68 133.07 191.43 131.633C190.195 130.195 189.25 128.453 188.594 126.406C187.953 124.359 187.633 122.055 187.633 119.492V117.641C187.633 115.078 187.969 112.773 188.641 110.727C189.328 108.664 190.297 106.914 191.547 105.477C192.812 104.023 194.328 102.914 196.094 102.148C197.859 101.383 199.82 101 201.977 101C204.945 101 207.453 101.531 209.5 102.594C211.547 103.656 213.133 105.117 214.258 106.977C215.383 108.82 216.047 110.922 216.25 113.281H208.047C208.016 112 207.797 110.93 207.391 110.07C206.984 109.195 206.344 108.539 205.469 108.102C204.594 107.664 203.43 107.445 201.977 107.445C200.961 107.445 200.078 107.633 199.328 108.008C198.578 108.383 197.953 108.977 197.453 109.789C196.953 110.602 196.578 111.656 196.328 112.953C196.094 114.234 195.977 115.781 195.977 117.594V119.492C195.977 121.305 196.086 122.852 196.305 124.133C196.523 125.414 196.875 126.461 197.359 127.273C197.844 128.086 198.469 128.688 199.234 129.078C200.016 129.453 200.969 129.641 202.094 129.641C203.344 129.641 204.398 129.445 205.258 129.055C206.117 128.648 206.781 128.039 207.25 127.227C207.719 126.398 207.969 125.344 208 124.063Z" fill="white"/>
</svg>
