<svg width="60" height="60" viewBox="0 0 60 60" fill="none" xmlns="http://www.w3.org/2000/svg">
<path fill-rule="evenodd" clip-rule="evenodd" d="M0 5.45455C0 2.44091 2.44091 0 5.45455 0H54.5455C57.5591 0 60 2.44091 60 5.45455V54.5455C60 57.5591 57.5591 60 54.5455 60H5.45455C2.44091 60 0 57.5591 0 54.5455V5.45455ZM23.6852 7.5H6.73296L24.2022 32.4501L7.63765 51.5625H13.0587L26.6147 35.8853L37.5932 51.5625H54.5455L35.9776 25.0562L51.1564 7.5H45.8216L33.5795 21.6281L23.6852 7.5ZM14.9327 11.846L39.7616 47.195H46.3386L21.5025 11.846H14.9327Z" fill="white"/>
</svg>
