<svg width="224" height="60" viewBox="0 0 224 60" fill="none" xmlns="http://www.w3.org/2000/svg">
<path d="M85.7295 4.284C89.8469 8.2545 90.386 14.5635 90.386 30C90.386 45.4365 89.8469 51.7455 85.7295 55.716C81.6105 59.6865 77.322 60 45.193 60C13.064 60 8.77551 59.6865 4.65649 55.716C0.539088 51.7455 0 45.4365 0 30C0 14.5635 0.539088 8.2545 4.65649 4.284C8.7739 0.313501 13.064 0 45.193 0C77.322 0 81.6105 0.313501 85.7295 4.284ZM37.8717 42.714L59.8274 30.648L37.8717 18.771V42.714Z" fill="white"/>
<path d="M103.073 21.883L97.5048 44.6144H92.3509L100.334 16.5424H103.592L103.073 21.883ZM107.694 44.6144L102.111 21.883L101.533 16.5424H104.836L112.848 44.6144H107.694ZM107.457 34.1645V39.0231H96.2163V34.1645H107.457Z" fill="white"/>
<path d="M120.833 32.4871H115.294L115.265 28.2841H119.841C120.65 28.2841 121.307 28.1555 121.811 27.8985C122.324 27.6414 122.699 27.2686 122.936 26.7802C123.173 26.2789 123.292 25.662 123.292 24.9293C123.292 24.0938 123.173 23.419 122.936 22.9049C122.699 22.3907 122.324 22.018 121.811 21.7866C121.307 21.5424 120.655 21.4203 119.856 21.4203H117.042V44.6144H112.214V16.5424H119.856C121.149 16.5424 122.304 16.6967 123.321 17.0051C124.338 17.3136 125.202 17.7892 125.913 18.4319C126.634 19.0745 127.182 19.8779 127.557 20.8419C127.932 21.8059 128.12 22.9434 128.12 24.2545C128.12 25.3985 127.922 26.4653 127.527 27.455C127.142 28.4447 126.52 29.2481 125.661 29.865C124.802 30.482 123.652 30.8162 122.21 30.8676L120.833 32.4871ZM120.641 44.6144H114.065L115.813 39.7558H120.641C121.381 39.7558 121.983 39.6015 122.447 39.2931C122.912 38.9846 123.252 38.5668 123.469 38.0398C123.687 37.5129 123.795 36.9216 123.795 36.2661C123.795 35.4949 123.692 34.8265 123.484 34.2609C123.287 33.6954 122.971 33.2584 122.536 32.9499C122.112 32.6414 121.544 32.4871 120.833 32.4871H116.509L116.538 28.2841H121.825L122.951 29.9422C124.323 29.9036 125.419 30.1928 126.239 30.8098C127.068 31.4139 127.666 32.2108 128.031 33.2005C128.396 34.1902 128.579 35.2378 128.579 36.3432C128.579 38.1684 128.278 39.6979 127.675 40.9319C127.073 42.153 126.18 43.072 124.995 43.6889C123.82 44.3059 122.368 44.6144 120.641 44.6144Z" fill="white"/>
<path d="M146.65 29.7879V41.1054C146.294 41.6324 145.751 42.1979 145.02 42.8021C144.3 43.4062 143.377 43.9267 142.251 44.3638C141.125 44.7879 139.783 45 138.223 45C136.811 45 135.527 44.7044 134.372 44.1131C133.217 43.509 132.225 42.6285 131.395 41.4717C130.566 40.3021 129.924 38.8753 129.47 37.1915C129.026 35.5077 128.803 33.5797 128.803 31.4075V29.7494C128.803 27.5771 129.026 25.6491 129.47 23.9653C129.914 22.2815 130.541 20.8612 131.351 19.7044C132.16 18.5347 133.123 17.6478 134.239 17.0437C135.354 16.4396 136.589 16.1375 137.941 16.1375C139.867 16.1375 141.441 16.5424 142.666 17.3522C143.89 18.1491 144.818 19.2545 145.45 20.6684C146.092 22.0823 146.487 23.7082 146.635 25.5463H141.984C141.886 24.608 141.688 23.7982 141.392 23.117C141.106 22.4357 140.696 21.9152 140.163 21.5553C139.63 21.1825 138.938 20.9961 138.089 20.9961C137.408 20.9961 136.791 21.1825 136.238 21.5553C135.695 21.9152 135.236 22.4614 134.861 23.1941C134.486 23.9267 134.199 24.8393 134.002 25.9319C133.804 27.0116 133.706 28.2712 133.706 29.7108V31.4075C133.706 32.847 133.804 34.1131 134.002 35.2057C134.209 36.2982 134.51 37.2108 134.905 37.9434C135.3 38.6632 135.799 39.2095 136.401 39.5823C137.013 39.955 137.724 40.1414 138.534 40.1414C139.166 40.1414 139.699 40.0771 140.133 39.9486C140.568 39.8072 140.923 39.6337 141.199 39.428C141.476 39.2095 141.683 39.0103 141.821 38.8303V34.1645H137.986V29.7879H146.65Z" fill="white"/>
<path d="M150.977 16.5424L155.197 29.036L159.448 16.5424H164.661L157.656 34.473V44.6144H152.754V34.473L145.734 16.5424H150.977Z" fill="white"/>
<path d="M168.307 15V44.6144H163.686V15H168.307ZM167.7 33.4512L166.544 33.4897C166.544 32.0244 166.683 30.6812 166.959 29.4602C167.245 28.2262 167.65 27.153 168.173 26.2404C168.697 25.3278 169.324 24.6208 170.054 24.1195C170.795 23.6183 171.609 23.3676 172.498 23.3676C173.288 23.3676 174.009 23.5154 174.66 23.8111C175.312 24.1067 175.875 24.5758 176.349 25.2185C176.823 25.8612 177.188 26.7031 177.445 27.7442C177.701 28.7853 177.83 30.0514 177.83 31.5424V44.6144H173.179V31.5039C173.179 30.617 173.081 29.9229 172.883 29.4216C172.695 28.9203 172.419 28.5668 172.054 28.3612C171.698 28.1555 171.264 28.0527 170.75 28.0527C170.148 28.0527 169.65 28.1941 169.255 28.4769C168.86 28.7468 168.549 29.126 168.322 29.6144C168.094 30.1028 167.932 30.6748 167.833 31.3303C167.744 31.9859 167.7 32.6928 167.7 33.4512Z" fill="white"/>
<path d="M187.829 39.5823V23.7532H192.479V44.6144H188.125L187.829 39.5823ZM188.318 35.3213L189.591 35.2828C189.591 36.6838 189.463 37.9756 189.206 39.1581C188.959 40.3406 188.584 41.3689 188.081 42.2429C187.587 43.117 186.97 43.7982 186.229 44.2866C185.499 44.7622 184.645 45 183.667 45C182.877 45 182.152 44.8586 181.49 44.5758C180.839 44.2802 180.276 43.8239 179.802 43.2069C179.328 42.5771 178.963 41.7738 178.706 40.7969C178.449 39.8072 178.321 38.6247 178.321 37.2494V23.7532H182.942V37.2879C182.942 37.8278 182.991 38.2905 183.09 38.6761C183.198 39.0488 183.341 39.3573 183.519 39.6015C183.707 39.8458 183.934 40.0257 184.2 40.1414C184.477 40.2571 184.778 40.3149 185.104 40.3149C185.923 40.3149 186.565 40.0964 187.029 39.6594C187.503 39.2095 187.834 38.6118 188.021 37.8663C188.219 37.108 188.318 36.2596 188.318 35.3213Z" fill="white"/>
<path d="M200.124 44.6144H195.384L195.414 39.7558H200.124C201.2 39.7558 202.108 39.4344 202.849 38.7918C203.589 38.1362 204.152 37.1722 204.537 35.8997C204.922 34.6144 205.115 33.0527 205.115 31.2147V29.9229C205.115 28.5347 205.006 27.3136 204.789 26.2596C204.572 25.1928 204.251 24.2995 203.826 23.5797C203.402 22.8599 202.873 22.3201 202.242 21.9602C201.62 21.6003 200.904 21.4203 200.094 21.4203H195.296V16.5424H200.094C201.555 16.5424 202.888 16.8638 204.093 17.5064C205.307 18.1491 206.354 19.0681 207.233 20.2635C208.121 21.4589 208.807 22.8728 209.291 24.5051C209.775 26.1375 210.017 27.9563 210.017 29.9614V31.2147C210.017 33.2069 209.775 35.0257 209.291 36.671C208.807 38.3033 208.121 39.7172 207.233 40.9126C206.354 42.0951 205.312 43.0077 204.108 43.6504C202.903 44.2931 201.575 44.6144 200.124 44.6144ZM198.124 16.5424V44.6144H193.296V16.5424H198.124Z" fill="white"/>
<path d="M219.202 35.8997V16.5424H224V35.8997C224 37.7764 223.674 39.3959 223.023 40.7584C222.381 42.108 221.507 43.1555 220.401 43.901C219.305 44.6337 218.066 45 216.684 45C215.262 45 213.998 44.6915 212.892 44.0745C211.787 43.4447 210.918 42.4871 210.286 41.2018C209.664 39.9036 209.353 38.2519 209.353 36.2468H214.181C214.181 37.2365 214.275 38.0206 214.462 38.599C214.66 39.1645 214.946 39.563 215.321 39.7943C215.696 40.0257 216.151 40.1414 216.684 40.1414C217.197 40.1414 217.642 39.9807 218.017 39.6594C218.392 39.3252 218.683 38.8432 218.89 38.2134C219.098 37.5707 219.202 36.7995 219.202 35.8997Z" fill="white"/>
</svg>
